<?xml version="1.0" standalone="no"?>
<!DOCTYPE svg PUBLIC "-//W3C//DTD SVG 20010904//EN"
 "http://www.w3.org/TR/2001/REC-SVG-20010904/DTD/svg10.dtd">
<svg version="1.0" xmlns="http://www.w3.org/2000/svg"
 width="900.000000pt" height="900.000000pt" viewBox="0 0 900.000000 900.000000"
 preserveAspectRatio="xMidYMid meet">

<g transform="translate(0.000000,900.000000) scale(0.100000,-0.100000)"
fill="#000000" stroke="none">
<path d="M3095 8989 c-482 -48 -890 -168 -1290 -378 -1107 -581 -1805 -1736
-1805 -2986 0 -359 57 -712 170 -1055 267 -811 819 -1478 1574 -1903 388 -218
893 -371 1351 -408 208 -16 579 -7 755 20 466 71 888 222 1269 453 768 466
1319 1211 1531 2068 82 334 105 551 97 910 -6 273 -21 400 -73 635 -48 212
-92 357 -170 550 -372 917 -1139 1632 -2079 1938 -227 74 -402 113 -642 143
-150 18 -558 27 -688 13z m605 -854 c380 -48 771 -197 1096 -416 262 -177 522
-442 702 -717 400 -611 514 -1371 311 -2077 -165 -575 -531 -1074 -1034 -1409
-421 -281 -882 -420 -1395 -420 -113 0 -248 6 -300 12 -598 78 -1105 331
-1520 758 -204 210 -335 398 -466 669 -147 303 -222 594 -244 938 -57 893 375
1757 1127 2257 512 341 1115 482 1723 405z"/>
<path d="M3085 7570 c-226 -35 -403 -92 -603 -194 -445 -228 -779 -606 -956
-1079 -65 -173 -116 -440 -116 -602 l0 -75 279 0 278 0 7 98 c15 202 58 359
152 543 225 441 659 728 1157 765 l97 7 0 278 0 279 -87 -1 c-49 0 -142 -9
-208 -19z"/>
<path d="M6624 3404 c-149 -216 -276 -366 -469 -559 -193 -193 -343 -320 -559
-469 l-98 -69 1068 -1067 c1185 -1183 1131 -1134 1334 -1202 91 -31 102 -32
260 -33 164 0 165 0 267 36 265 93 442 271 535 539 32 93 33 99 33 260 -1 158
-2 169 -33 260 -68 203 -19 149 -1202 1334 l-1067 1068 -69 -98z"/>
</g>
</svg>
