<?xml version="1.0" standalone="no"?>
<!DOCTYPE svg PUBLIC "-//W3C//DTD SVG 20010904//EN"
 "http://www.w3.org/TR/2001/REC-SVG-20010904/DTD/svg10.dtd">
<svg version="1.0" xmlns="http://www.w3.org/2000/svg"
 width="225.000000pt" height="225.000000pt" viewBox="0 0 225.000000 225.000000"
 preserveAspectRatio="xMidYMid meet">

<g transform="translate(0.000000,225.000000) scale(0.100000,-0.100000)"
fill="#888888" stroke="none">
<path d="M2013 1958 c-35 -9 -73 -50 -73 -79 0 -11 -4 -19 -9 -19 -5 0 -32
-18 -61 -41 l-51 -40 -662 -85 c-918 -117 -1037 -133 -1048 -139 -19 -12 -4
-69 99 -380 l107 -320 702 -3 701 -2 30 -73 31 -72 -757 -5 c-844 -6 -811 -3
-888 -75 -30 -29 -34 -37 -24 -54 11 -22 54 -29 65 -11 4 6 25 20 48 33 l42
22 799 5 c715 4 800 7 809 21 7 12 -3 46 -38 133 l-48 117 11 102 c19 169 81
680 87 714 4 21 17 40 37 54 29 21 32 21 58 5 46 -27 106 -21 141 13 23 24 29
38 29 75 0 76 -63 124 -137 104z m-218 -335 c-4 -43 -8 -79 -9 -80 -1 -1 -27
-5 -59 -9 l-56 -7 6 74 c3 41 8 76 10 79 2 2 25 7 51 11 26 3 51 7 56 8 4 0 5
-34 1 -76z m-155 -10 c0 -38 -4 -73 -8 -79 -4 -6 -33 -14 -64 -18 l-58 -6 0
74 0 75 48 6 c26 4 52 8 57 10 23 8 25 2 25 -62z m-170 -32 c0 -78 0 -78 -80
-83 l-45 -3 -3 72 c-3 80 -6 78 91 82 l37 1 0 -69z m-165 -16 c4 -36 5 -68 3
-70 -3 -3 -32 -8 -66 -11 -56 -6 -62 -5 -62 12 0 10 -3 42 -6 71 l-7 52 34 4
c19 2 48 5 66 5 l31 2 7 -65z m-167 -26 l3 -67 -61 -7 c-34 -4 -63 -6 -65 -4
-1 2 -4 33 -6 69 l-4 65 40 6 c87 14 90 12 93 -62z m-168 -18 c3 -38 1 -65 -5
-66 -5 -2 -33 -6 -62 -9 l-52 -7 -6 48 c-13 91 -14 87 35 94 84 12 84 11 90
-60z m-177 42 c3 -5 8 -33 11 -65 8 -64 7 -65 -74 -70 l-44 -3 -12 60 c-7 33
-11 61 -9 63 3 3 84 18 112 21 6 0 14 -2 16 -6z m-155 -83 c5 -30 9 -56 8 -57
-2 -2 -30 -6 -63 -9 l-60 -7 -15 61 -16 61 47 6 c25 4 53 7 61 9 22 4 26 -3
38 -64z m-169 -16 c7 -30 11 -57 9 -59 -2 -2 -30 -5 -62 -7 l-59 -3 -18 57
-17 57 27 4 c14 2 44 5 67 6 l41 1 12 -56z m-167 -19 c8 -30 13 -57 10 -60 -3
-3 -24 -5 -48 -5 -41 0 -42 1 -58 47 -9 26 -16 50 -16 54 0 9 26 16 66 18 29
1 32 -2 46 -54z m1474 8 c-4 -27 -9 -67 -13 -90 l-5 -43 -49 0 c-49 0 -49 0
-49 33 0 17 3 55 6 84 7 56 9 57 88 62 28 1 28 1 22 -46z m-146 3 c0 -12 -3
-51 -6 -85 l-7 -61 -60 0 -60 0 6 77 c3 46 11 79 19 84 7 5 34 9 61 9 43 0 47
-2 47 -24z m-160 -40 c0 -29 -3 -68 -6 -85 -6 -30 -8 -31 -60 -31 -52 0 -53 1
-59 33 -4 18 -5 53 -3 77 l3 45 45 6 c86 11 80 14 80 -45z m-160 -46 l0 -80
-59 0 -58 0 -7 53 c-11 94 -10 95 32 100 20 2 49 4 65 5 l27 2 0 -80z m-166
38 c3 -13 6 -47 6 -75 l0 -53 -60 0 c-50 0 -60 3 -60 18 0 9 -3 40 -6 69 -7
57 -5 60 72 62 35 1 43 -2 48 -21z m-160 -25 c3 -21 6 -54 6 -75 l0 -36 -56
-4 c-32 -2 -58 1 -60 7 -2 6 -5 37 -6 70 l-3 60 50 6 c28 3 53 7 56 7 4 1 9
-15 13 -35z m-156 -50 c5 -38 9 -69 8 -69 0 -1 -27 -4 -58 -6 -65 -5 -65 -5
-74 77 l-7 54 39 4 c88 9 81 14 92 -60z m-160 -15 c6 -34 10 -63 9 -64 -1 -1
-28 -4 -59 -6 l-57 -5 -11 46 c-6 25 -13 54 -16 63 -5 18 14 23 87 27 l35 1
12 -62z m-159 -15 c6 -31 10 -57 8 -59 -1 -1 -26 -4 -56 -5 l-54 -4 -18 54
c-23 65 -18 71 57 71 l51 0 12 -57z m-165 0 c23 -66 21 -70 -25 -75 -39 -4
-43 -2 -55 27 -7 17 -16 43 -19 57 -6 24 -4 27 27 31 18 2 38 5 45 5 6 1 18
-19 27 -45z m1399 -118 l-8 -70 -45 -3 -46 -3 4 73 c2 40 5 78 7 85 2 6 23 13
47 15 51 4 52 2 41 -97z m-131 8 c-2 -43 -5 -79 -6 -80 -1 -1 -25 -5 -54 -9
l-52 -7 0 86 0 86 53 3 c28 2 55 2 58 1 3 -1 4 -37 1 -80z m-152 -8 l0 -85
-55 0 -55 0 0 79 0 80 53 4 c28 2 53 4 55 5 1 1 2 -36 2 -83z m-150 -9 l0 -74
-52 -4 c-29 -2 -54 -4 -54 -4 -1 1 -5 36 -9 79 l-7 77 61 0 61 0 0 -74z m-156
42 c3 -13 6 -47 6 -75 l0 -53 -54 0 -53 0 -7 38 c-3 20 -6 54 -6 75 l0 37 54
0 c47 0 54 -3 60 -22z m-150 -40 c10 -92 12 -88 -48 -88 l-54 0 -7 43 c-3 23
-8 54 -11 70 l-6 27 60 0 59 0 7 -52z m-161 35 c3 -5 8 -36 12 -70 l7 -63 -55
0 -54 0 -12 57 c-17 85 -18 83 43 83 30 0 57 -3 59 -7z m-144 -53 c17 -81 18
-80 -43 -80 l-54 0 -11 48 c-7 26 -14 55 -17 65 -5 15 2 17 54 17 l60 0 11
-50z m-152 -15 c19 -75 19 -75 -40 -75 l-53 0 -17 53 c-25 79 -25 78 40 75
l57 -3 13 -50z m-153 -9 c9 -30 16 -57 16 -60 0 -3 -19 -6 -43 -6 l-43 0 -17
53 c-9 30 -17 57 -17 60 0 4 20 7 44 7 l45 0 15 -54z m1206 -120 c0 -80 -4
-86 -61 -86 l-49 0 0 63 c0 35 3 67 7 70 3 4 28 7 55 7 l48 0 0 -54z m126 22
c-18 -118 -13 -108 -58 -108 l-41 0 7 38 c3 20 6 52 6 70 0 31 1 32 45 32 l46
0 -5 -32z m-557 -66 l1 -43 -52 3 -53 3 -5 57 -5 57 50 3 c57 3 62 -4 64 -80z
m141 23 l0 -65 -49 0 c-48 0 -48 0 -55 38 -3 20 -6 49 -6 65 0 26 2 27 55 27
l55 0 0 -65z m146 28 c-3 -21 -6 -50 -6 -65 0 -27 -2 -28 -50 -28 l-50 0 0 65
0 65 56 0 57 0 -7 -37z m-582 -10 c13 -80 11 -83 -43 -83 l-49 0 -11 50 c-6
28 -11 53 -11 55 0 2 15 6 33 8 75 9 74 9 81 -30z m146 0 c0 -21 3 -48 6 -60
6 -22 3 -23 -48 -23 l-55 0 -7 46 c-10 76 -11 74 49 74 l55 0 0 -37z m-440 -3
c23 -88 26 -80 -34 -80 l-54 0 -11 46 c-6 25 -9 50 -5 55 3 6 26 9 52 7 39 -3
47 -7 52 -28z m144 13 c3 -10 8 -35 12 -56 l6 -38 -53 3 c-57 3 -52 -2 -73 81
-6 27 -6 27 48 27 43 0 56 -4 60 -17z m-286 -32 c18 -57 16 -61 -27 -61 -38 0
-40 2 -55 47 -9 26 -16 48 -16 50 0 2 20 3 43 3 42 0 44 -1 55 -39z"/>
<path d="M380 554 c0 -15 -13 -41 -30 -61 -49 -55 -37 -147 25 -187 57 -37
150 -13 181 46 23 44 14 112 -20 147 -15 15 -26 39 -26 54 0 27 -1 27 -65 27
-63 0 -65 -1 -65 -26z"/>
<path d="M1640 550 c0 -16 -6 -33 -13 -37 -66 -40 -58 -175 13 -213 31 -17 92
-15 128 4 67 35 82 138 28 195 -15 15 -26 39 -26 54 0 27 -1 27 -65 27 l-65 0
0 -30z"/>
</g>
</svg>
